<?xml version="1.0" encoding="utf-8"?>
<!-- Generator: Adobe Illustrator 16.0.0, SVG Export Plug-In . SVG Version: 6.00 Build 0)  -->
<!DOCTYPE svg PUBLIC "-//W3C//DTD SVG 1.1//EN" "http://www.w3.org/Graphics/SVG/1.1/DTD/svg11.dtd">
<svg version="1.1" id="Layer_1" xmlns="http://www.w3.org/2000/svg" xmlns:xlink="http://www.w3.org/1999/xlink" x="0px" y="0px"
	 width="521.945px" height="130.394px" viewBox="0 0 521.945 130.394" enable-background="new 0 0 521.945 130.394"
	 xml:space="preserve">
<g>
	<path fill="#FFFFFF" d="M54.815,0.002c0,0,12.26,19.343,25.632,25.116c1.076,29.52-3.582,64.083-31.8,79.074v-0.002
		c-28.217-14.99-32.875-49.554-31.799-79.074C30.221,19.343,42.481,0,42.481,0S18.033,13.295,0,13.295
		c0,98.344,35.433,88.03,48.648,117.099c13.217-29.066,48.651-18.755,48.651-117.097C79.266,13.297,54.815,0.002,54.815,0.002z"/>
	<g>
		<path fill="#FFFFFF" d="M192.448,29.949v54.704c0,9.101-6.201,15.301-15.301,15.301h-23.501c-9,0-15.201-6.2-15.201-15.301V29.949
			h11.901v54.104c0,3.5,2.1,5.5,5.5,5.5h19.201c3.4,0,5.5-2,5.5-5.5V29.949H192.448z"/>
		<path fill="#FFFFFF" d="M254.046,70.051h-30.201v29.902h-11.901V29.949h11.901V59.75h30.201V29.949h11.901v70.004h-11.901V70.051z
			"/>
		<path fill="#FFFFFF" d="M360.645,99.953h-38.703V29.949h38.703c9.102,0,15.301,6.101,15.301,15.301v39.402
			C375.945,93.753,369.746,99.953,360.645,99.953z M364.045,45.85c0-3.5-2.1-5.6-5.5-5.6h-24.701v49.303h24.701c3.4,0,5.5-2,5.5-5.5
			V45.85z"/>
		<path fill="#FFFFFF" d="M407.344,51.75v48.203h-11.902V29.949h11.102l31.002,48.203V29.949h11.9v70.004h-11.1L407.344,51.75z"/>
		<path fill="#FFFFFF" d="M521.945,75.052v9.601c0,9.2-6.199,15.301-15.201,15.301h-22.5c-9.102,0-15.303-6.101-15.303-15.301
			v-6.201h11.902v5.601c0,3.5,2.1,5.5,5.5,5.5h18.201c3.4,0,5.5-2,5.5-5.5v-8.5c0-3.4-2.1-5.5-5.5-5.5h-20.402
			c-9,0-15.201-6.1-15.201-15.301v-9.5c0-9.201,6.201-15.301,15.201-15.301h22.502c9.102,0,15.301,6.101,15.301,15.301v6.2h-11.9
			V45.85c0-3.5-2.1-5.6-5.5-5.6h-18.201c-3.4,0-5.5,2.1-5.5,5.6v8.301c0,3.5,2.1,5.6,5.5,5.6h20.4
			C515.746,59.75,521.945,65.851,521.945,75.052z"/>
	</g>
</g>
</svg>
